# xmcd CD database file generated by Grip 2.95
# 
# Track frame offsets:
#       150
#       14907
#       29030
#       42457
#       55830
#       68552
#       80282
#       94475
#       108582
#       123312
#       136455
#       149535
#       162410
#       175055
#       187550
#       200010
#       214130
#       228215
#       241772
#       254827
# 
# Disc length: 3568 seconds
# 
# Revision: 3
# Processed by: cddbd v1.4b41PL2 Copyright (c) Steve Scherf et al.
# Submitted via: Grip 2.95
# 
DISCID=280dee14
DTITLE=Various Artist - Blues Blues Blues - The Platinum Collection (Disk 1)
DYEAR=1900
DGENRE=
TTITLE0=Joe Turner - Rocks In My Bed 
TTITLE1=Leroy Carr - Midnight Hours Blues
TTITLE2=Tampa Red - You Can't Get That Stuff No More
TTITLE3=Tampa Red - Denver Blues
TTITLE4=Champion Jack Dupree - Gamblin Man Blues
TTITLE5=Robert Johnson - Phonograph Blues
TTITLE6=Blind Willie McTell - Broke Down Engine
TTITLE7=Sonny Boy Williamson - Blue Birds Blues
TTITLE8=Blind Boy Fuller - Baby You Gotta Change Your Mind
TTITLE9=Leadbelly - Good Morning Blues
TTITLE10=Robert Johnson - Preaching Blues (Up Jumped The Devil)
TTITLE11=Arthur "Big Boy" Crudup - Gonna Follow My Baby
TTITLE12=Lonnie Johnson - Mr. Johnson's Swing
TTITLE13=Brownie McGhee - Picking My Tomatoes
TTITLE14=Roosevelt Sykes - 15c A Day
TTITLE15=Blind Boy Fuller - I'm A Rattlesnakin' Daddy
TTITLE16=Big Bill Broonzy - Worrying You Off My Mind
TTITLE17=Leroy Carr - Good Woman Blues
TTITLE18=Big Bill Broonzy - You Know I Got A Reason
TTITLE19=Robert Johnson - When You Got A Friend
EXTD=
EXTT0=
EXTT1=
EXTT2=
EXTT3=
EXTT4=
EXTT5=
EXTT6=
EXTT7=
EXTT8=
EXTT9=
EXTT10=
EXTT11=
EXTT12=
EXTT13=
EXTT14=
EXTT15=
EXTT16=
EXTT17=
EXTT18=
EXTT19=
PLAYORDER=
